<svg width="144" height="120" viewBox="0 0 144 120" fill="none" xmlns="http://www.w3.org/2000/svg">
<circle cx="72" cy="76" r="44" fill="#F7D954"/>
<rect x="122" y="73" width="22" height="6" rx="3" fill="#F7D954"/>
<rect y="73" width="22" height="6" rx="3" fill="#F7D954"/>
<rect x="120" y="56.0755" width="22" height="6" rx="3" transform="rotate(-21.535 120 56.0755)" fill="#F7D954"/>
<rect x="52.0445" y="27.2731" width="22" height="6" rx="3" transform="rotate(-126.365 52.0445 27.2731)" fill="#F7D954"/>
<rect x="112" y="39.4499" width="22" height="6" rx="3" transform="rotate(-48.3935 112 39.4499)" fill="#F7D954"/>
<rect x="31.9195" y="39.65" width="22" height="6" rx="3" transform="rotate(-144.54 31.9195 39.65)" fill="#F7D954"/>
<rect x="94" y="25.262" width="22" height="6" rx="3" transform="rotate(-67.0725 94 25.262)" fill="#F7D954"/>
<rect x="22.5908" y="60.1119" width="22" height="6" rx="3" transform="rotate(-168.932 22.5908 60.1119)" fill="#F7D954"/>
<rect x="71.5832" y="22.9189" width="22" height="6" rx="3" transform="rotate(-87.6613 71.5832 22.9189)" fill="#F7D954"/>
</svg>
